HIERARCHY
ROOT Root
{
  OFFSET 8.18079 11.8871 -0.0452717
  CHANNELS 6 Xposition Yposition Zposition Zrotation Xrotation Yrotation
  JOINT Spine
  {
    OFFSET 5.3114 0 0
    CHANNELS 3 Zrotation Xrotation Yrotation
    JOINT Spine1
    {
      OFFSET 2.79004 0 0
      CHANNELS 3 Zrotation Xrotation Yrotation
      JOINT Neck
      {
        OFFSET 1.43377 0 0
        CHANNELS 3 Zrotation Xrotation Yrotation
        JOINT Head
        {
          OFFSET 1.86043 0 0
          CHANNELS 3 Zrotation Xrotation Yrotation
          End Site
          {
            OFFSET 0 0 0
          }
        }
      }
      JOINT LeftArm
      {
        OFFSET 0.0387506 0 2.55754
        CHANNELS 3 Zrotation Xrotation Yrotation
        JOINT LeftForeArm
        {
          OFFSET 4.24845 0 0
          CHANNELS 3 Zrotation Xrotation Yrotation
          JOINT LeftHand
          {
            OFFSET 4.01008 0 0
            CHANNELS 3 Zrotation Xrotation Yrotation
            End Site
            {
              OFFSET 0 0 0
            }
          }
        }
      }
      JOINT RightArm
      {
        OFFSET 0.0387506 0 -2.55754
        CHANNELS 3 Zrotation Xrotation Yrotation
        JOINT RightForeArm
        {
          OFFSET -4.24845 0 0
          CHANNELS 3 Zrotation Xrotation Yrotation
          JOINT RightHand
          {
            OFFSET -4.01009 0 0
            CHANNELS 3 Zrotation Xrotation Yrotation
            End Site
            {
              OFFSET 0 0 0
            }
          }
        }
      }
    }
  }
  JOINT LeftUpLeg
  {
    OFFSET -1.23318 0 2.05692
    CHANNELS 3 Zrotation Xrotation Yrotation
    JOINT LeftLeg
    {
      OFFSET 5.46397 0 0
      CHANNELS 3 Zrotation Xrotation Yrotation
      JOINT LeftFoot
      {
        OFFSET 4.68898 0 0
        CHANNELS 3 Zrotation Xrotation Yrotation
        End Site
        {
          OFFSET 0 0 0
        }
      }
    }
  }
  JOINT RightUpLeg
  {
    OFFSET -1.24454 0 -2.05007
    CHANNELS 3 Zrotation Xrotation Yrotation
    JOINT RightLeg
    {
      OFFSET -5.46397 0 0
      CHANNELS 3 Zrotation Xrotation Yrotation
      JOINT RightFoot
      {
        OFFSET -4.68901 0 0
        CHANNELS 3 Zrotation Xrotation Yrotation
        End Site
        {
          OFFSET 0 0 0
        }
      }
    }
  }
}
MOTION
Frames:	13
Frame Time:	0.0416667
2.25341 11.8625 10.328 -99.0056 1.75539 -179.375 -8.22452 -0.0739023 -1.51315 8.57743 0.213562 3.86702 -19.6489 1.13064 -2.85038 27.5506 1.67171 -1.72716 -5.90007 -42.9586 -162.829 32.7597 2.6015 18.8346 -1.30864 -14.6692 174.288 -179.173 -37.0742 -171.793 53.1577 9.66918 29.1914 0.569618 6.48645 174.425 -23.2733 3.19755 177.915 -34.4673 -0.879937 -1.33263 22.6865 -6.60046 179.254 154.816 -11.1252 -173.788 -42.5031 -0.930126 -1.56477 7.81902 -2.51316 177.088 
2.45957 11.8456 10.3613 -98.8228 1.07537 -179.364 -7.99522 -1.11388 -1.54658 8.58233 -0.0657532 4.09172 -19.684 1.21196 -2.77242 27.6917 1.85688 -1.75554 -7.38315 -45.1447 -162.185 33.5339 2.79506 19.2584 -1.37324 -15.3153 174.27 -177.806 -35.0249 -171.217 52.8614 9.53838 29.0561 0.622214 7.07898 174.419 -22.0436 2.63016 177.751 -34.4859 -0.870092 -1.3351 23.6521 -6.89345 179.294 153.659 -13.8975 -173.407 -36.6332 -0.805637 -1.42043 6.94536 0.133432 176.671 
2.65694 11.8304 10.4014 -98.5128 0.328454 -179.14 -7.67149 -2.21295 -1.89847 8.75913 -0.355241 4.40292 -19.7833 1.29112 -2.44634 27.6847 2.00413 -2.24916 -8.65404 -47.3917 -161.328 34.3892 3.01593 19.7245 -1.42541 -15.865 174.254 -176.204 -32.4641 -170.145 53.0003 9.5997 29.1196 0.672831 7.64762 174.412 -20.5274 2.44612 177.534 -34.1691 -0.8525 -1.32835 24.0841 -6.66302 179.126 153.062 -17.0426 -173.043 -31.3037 -0.626791 -1.29313 2.68763 1.75712 176.424 
2.82988 11.8196 10.4529 -98.1743 -0.249712 -178.928 -7.32233 -3.30954 -2.23363 8.88957 -0.64652 4.6812 -19.9394 1.47803 -2.40927 27.7685 2.36315 -2.34732 -9.73868 -49.4472 -160.34 35.041 3.18893 20.078 -1.4724 -16.3597 174.239 -174.4 -29.3512 -168.646 53.6574 9.89171 29.4186 0.778215 8.82531 174.395 -19.1203 2.69548 177.572 -33.8222 -0.836551 -1.31868 24.2339 -6.02811 178.829 152.888 -19.9958 -172.944 -27.6756 -0.489447 -1.18116 -0.900598 0.751995 176.336 
2.96556 11.8106 10.5145 -97.8113 -0.504146 -178.715 -6.91163 -4.67387 -2.47355 9.07808 -0.998261 5.07863 -20.168 1.88407 -2.07347 27.9949 3.10817 -3.11951 -10.5911 -51.0997 -159.214 35.5136 3.31747 20.3339 -1.50443 -16.6811 174.228 -172.859 -26.425 -166.118 54.4574 10.2524 29.7788 0.92094 10.406 174.369 -17.9566 2.12114 177.514 -33.7156 -0.854923 -1.31978 25.0874 -5.71477 178.789 152.811 -21.3342 -172.936 -26.3481 -0.435451 -1.14067 -2.2124 -0.00188799 176.227 
3.07159 11.7977 10.5879 -97.3574 -0.316044 -178.436 -6.49162 -5.92526 -2.77452 9.16294 -1.33338 5.33456 -19.9775 2.34636 -1.28895 28.1341 4.01495 -4.41269 -10.3643 -52.5488 -157.272 35.9028 3.42423 20.543 -1.4579 -16.2443 174.241 -171.136 -23.6315 -162.831 55.9622 10.9456 30.445 1.03018 11.6044 174.346 -16.8173 2.08775 177.59 -33.7851 -0.885036 -1.31802 25.7525 -5.66066 178.854 152.929 -20.9498 -173.091 -27.0403 -0.442826 -1.1621 -2.42379 0.846165 176.254 
3.16275 11.8 10.6651 -96.8016 0.475054 -178.23 -6.0237 -7.23157 -2.85363 9.29681 -1.6746 5.61491 -19.7598 3.01545 -0.323715 28.7333 5.28537 -6.15393 -9.16464 -53.7315 -154.779 36.3786 3.55738 20.7981 -1.46931 -16.3495 174.237 -170.398 -21.1265 -158.448 57.2071 11.5332 30.9857 1.15023 12.9077 174.319 -15.2887 1.52611 177.616 -33.4229 -0.932309 -1.30878 26.8208 -6.47767 179.345 153.153 -20.1876 -173.589 -27.8349 -0.453359 -1.18941 -3.18918 2.28387 176.351 
3.25394 11.8017 10.742 -96.2771 1.58562 -178.318 -5.53361 -8.69519 -2.38374 9.40293 -2.06705 5.71973 -19.7215 3.79616 0.841501 29.8751 6.7164 -8.30091 -6.85547 -54.6767 -151.642 36.6238 3.62728 20.9308 -1.48266 -16.4681 174.234 -170.428 -19.1473 -152.768 58.2898 12.0555 31.4457 1.3154 14.6731 174.276 -13.7642 1.01568 177.956 -33.0506 -0.974682 -1.29856 28.0054 -7.33012 179.897 153.384 -19.5476 -174.359 -28.0479 -0.45298 -1.20053 -4.62262 3.49344 176.491 
3.33899 11.7958 10.8151 -96.151 3.19229 -178.602 -5.44441 -10.1045 -1.49709 9.55532 -2.44833 5.71314 -19.4862 4.59021 2.30008 31.1595 8.10742 -10.9162 -3.89847 -55.2453 -148.092 36.6307 3.62988 20.9353 -1.4646 -16.2879 174.239 -170.224 -18.1633 -145.425 59.5561 12.6779 31.974 1.33755 14.9492 174.269 -12.8839 0.684126 178.512 -33.1403 -1.02516 -1.30172 29.5837 -8.18864 -179.459 153.141 -18.762 -175.305 -27.8476 -0.439433 -1.20379 -7.01536 4.8189 176.768 
3.41008 11.7906 10.8818 -96.0939 5.42751 -178.492 -5.22115 -11.0179 -0.991008 9.48075 -2.69647 5.80294 -19.0567 5.36036 3.8219 32.4329 9.41342 -13.4982 0.80795 -56.3036 -143.156 36.7601 3.66557 21.0027 -1.51971 -16.8057 174.224 -169.826 -17.9216 -136.721 60.7763 13.2888 32.4723 1.27612 14.3761 174.285 -11.78 0.680905 178.562 -32.8037 -1.0874 -1.29288 30.9706 -9.60881 -178.501 152.645 -18.3437 -176.022 -27.7596 -0.415483 -1.20018 -9.67452 5.98985 177.147 
3.46841 11.7861 10.9481 -96.0109 8.16335 -178.427 -4.70186 -11.6493 -0.569689 9.32862 -2.87079 5.87022 -18.5994 6.11935 5.57553 33.5361 10.6686 -16.2305 5.48499 -56.1823 -138.653 36.7808 3.67234 21.0151 -1.47862 -16.4184 174.237 -169.447 -18.1132 -127.471 61.7903 13.8197 32.8753 1.27241 14.3335 174.287 -10.4585 1.24538 178.777 -32.3268 -1.15235 -1.28071 32.7006 -10.5589 -177.619 152.174 -18.7848 -177.129 -27.3879 -0.396235 -1.19178 -11.9927 6.75464 177.46 
3.52475 11.7843 11.0151 -96.0609 11.1336 -178.248 -4.39015 -12.1421 -0.289282 9.44916 -2.99667 5.92201 -18.2382 6.97781 7.04572 34.7211 12.1141 -18.4615 10.6169 -55.7435 -133.907 36.6936 3.64745 20.9685 -1.46798 -16.3313 174.241 -168.352 -18.8279 -117.193 62.6669 14.2647 33.2209 1.30259 14.5998 174.28 -9.08312 2.1481 178.873 -31.5722 -1.21609 -1.26099 34.3884 -11.389 -176.727 151.605 -19.1962 -178.169 -26.9221 -0.369276 -1.1784 -14.6011 7.5009 177.866 
3.57259 11.7787 11.0743 -96.3524 14.2241 -177.938 -4.21952 -12.6132 -0.104033 9.52979 -3.13374 5.82139 -17.7241 7.85154 8.23986 35.5919 13.6138 -20.1893 16.4133 -54.8058 -129.002 36.6958 3.64765 20.9689 -1.51339 -16.7921 174.23 -166.721 -19.3675 -106.936 63.7514 14.8284 33.638 1.2978 14.5172 174.283 -8.05016 3.05265 178.764 -30.9372 -1.28398 -1.24524 36.1437 -12.1828 -175.755 150.728 -19.3241 -179.084 -26.5459 -0.338451 -1.16307 -17.4662 8.30221 178.406 
